<svg 
width="1053" 
height="763"
 viewBox="0 0 1053 763" 
  xmlns="http://www.w3.org/2000/svg">
<g id="no result found 1" 
>
<g id="hugger">
<path id="Vector" 
d="M376.92 318.873L385.28 245.123L376.92 234.023L347.23 229.833L298.77 233.523L251.66 219.843L224.33 191.673L234.44 160.273L254.51 162.523L318.8 163.223L382.18 165.523L446.22 165.843L509.74 143.413L544.86 128.733L589.65 149.803L613.51 136.223L640.2 162.603L660.6 206.143L705.15 215.353L745.57 195.323L825.03 187.673L847.26 193.443L864.12 209.023L851.73 221.793L808.36 251.193L754.47 254.873L703.23 264.723L659.26 291.703L624.66 325.913L603.15 372.323"      
  style="fill:#4690CE"
 />
<path id="Vector_2" d="M381.97 320.853C384.67 302.173 386.66 283.413 388.77 264.653L390.25 251.533C390.62 248.163 391.48 244.223 390.16 241.043C388.36 236.753 384.35 232.683 381.48 229.043C378.74 225.603 375.2 225.683 371.13 225.113L353.71 222.673C351.345 222.211 348.948 221.927 346.54 221.823C336.62 221.943 326.54 223.363 316.65 224.133L301.82 225.283C300.814 225.21 299.803 225.287 298.82 225.513C299.19 225.343 300.68 226.193 299.92 225.723C299.395 225.496 298.844 225.335 298.28 225.243C287.87 222.243 277.45 219.243 267.05 216.243C262.91 215.023 258.3 212.933 254.05 212.403C252.25 212.183 255.05 213.843 253.71 212.133C252.37 210.423 250.83 209.133 249.43 207.703C242.03 200.029 234.617 192.363 227.19 184.703L229.19 195.703L239.3 164.303L234.44 168.303C242.68 169.223 250.9 170.513 259.19 170.613C272.94 170.773 286.7 170.843 300.45 170.963C321.06 171.153 341.63 172.013 362.23 172.763C382.66 173.513 403.06 173.643 423.51 173.713L441.79 173.773C444.091 173.946 446.404 173.743 448.64 173.173C460.09 169.543 471.35 165.113 482.64 161.093C492.13 157.723 501.77 154.633 511.17 151.023C521.75 146.963 532.17 142.293 542.6 137.943L546.31 136.403H543.31L573.26 150.643C577.88 152.833 582.48 155.383 587.26 157.283C591.26 158.873 594.92 155.533 598.33 153.603L615 144.203L610.54 143.373C619.407 152.206 628.297 161.013 637.21 169.793L635.12 166.793L646.77 191.663L653.58 206.193C654.92 209.043 656.17 213.083 659.32 214.193C662.75 215.433 666.87 215.753 670.43 216.473L688.68 220.183L702.43 222.993C704.743 223.568 707.19 223.209 709.24 221.993L739.77 206.773L744.99 204.173C746.32 203.503 748.29 203.173 745.67 203.393C747.91 203.233 750.16 202.943 752.4 202.723C774.53 200.533 796.66 198.303 818.79 196.203C820.4 196.053 822.07 196.003 823.67 195.743C825.27 195.483 825.07 195.913 823.86 195.393C829.1 197.643 835.54 198.343 841.06 199.703C842.19 199.973 843.37 200.393 844.52 200.553C846.14 200.773 845.71 201.463 844.66 200.183C846.125 201.711 847.696 203.134 849.36 204.443C853.44 208.133 857.42 211.933 861.44 215.693V202.403C857.36 206.573 853.44 211.323 849.01 215.073C845.64 217.893 841.48 220.073 837.83 222.533C827.06 229.743 816.25 236.893 805.49 244.113L808.41 242.983C790.65 244.093 772.63 244.353 754.96 246.343C748.07 247.123 741.16 248.923 734.35 250.223L704.35 255.943C697.92 257.173 691.6 262.593 686.1 265.943C676.84 271.613 667.61 277.313 658.35 282.943C653.19 286.093 649.16 291.193 644.89 295.403C637.383 302.789 629.927 310.236 622.52 317.743C620.638 319.788 619.147 322.16 618.12 324.743C615.7 330.043 613.263 335.333 610.81 340.613C606.55 349.763 602.21 358.863 597.97 368.013C596.33 371.543 596.97 377.223 600.12 379.743C603.46 382.403 606.82 379.923 608.33 376.673C615.51 361.193 622.52 345.673 629.79 330.213L627.66 333.213C634.46 326.573 641.31 319.973 648.07 313.293C652 309.413 655.9 305.523 659.81 301.633C660.999 300.337 662.343 299.192 663.81 298.223C673.49 292.223 683.19 286.333 692.87 280.373L704.76 273.063L706.01 272.293C706.89 271.733 704.88 272.853 704.94 272.973C706.152 272.81 707.354 272.58 708.54 272.283L743.76 265.463L755.43 263.233C757.27 262.873 753.1 263.323 755.33 263.353C756.94 263.353 758.59 263.123 760.19 263.013C772.42 262.173 784.64 261.203 796.87 260.303C800.56 260.033 804.32 259.933 808 259.483C810.71 259.143 813 257.183 815.17 255.663C826.21 248.063 837.247 240.459 848.28 232.853C850.656 231.387 852.928 229.76 855.08 227.983C859.23 224.173 862.96 219.763 866.86 215.693C870.24 212.163 870.65 205.823 866.86 202.353C862.17 198.083 857.48 193.813 852.86 189.463C851.45 188.133 850.17 186.613 848.35 185.893C845.5 184.753 842.23 184.223 839.27 183.413C834.71 182.163 829.38 179.823 824.6 179.773C820.5 179.723 816.2 180.593 812.13 180.993C796.48 182.523 780.82 183.943 765.13 185.413C757.43 186.133 748.13 185.503 741.13 188.983L703.63 207.453H706.63C691.777 204.333 676.93 201.223 662.09 198.123L665.57 201.943L649.57 167.673C647.7 163.673 646.08 158.483 642.97 155.253C638.79 150.913 634.38 146.763 630.09 142.523C625.55 138.023 620.997 133.539 616.43 129.073C615.43 128.143 613.21 127.523 611.96 128.243L588.13 141.933H591.13L554.65 124.933C551.14 123.303 546.65 119.933 542.65 121.333C536 123.673 529.54 126.843 523.04 129.573C499.36 139.513 474.97 147.573 450.74 156.043C448.898 156.559 447.091 157.194 445.33 157.943C444.09 158.573 445.58 157.593 446.11 157.883C445.82 157.723 445.05 157.883 444.73 157.883C438.73 157.593 432.73 157.803 426.73 157.763C412.18 157.673 397.63 157.763 383.09 157.553C361.4 157.283 339.73 155.653 318.09 155.253C292.89 154.793 267.47 155.943 242.41 153.133L234.41 152.243C232.26 151.993 230.15 154.393 229.56 156.243L219.45 187.643C218.19 191.553 218.51 195.643 221.45 198.643C229.883 207.309 238.323 215.976 246.77 224.643C249.26 227.203 251.25 227.853 254.67 228.833C261.557 230.833 268.443 232.833 275.33 234.833C284.16 237.413 293.66 241.883 302.97 241.193L344.55 238.093C348.78 237.773 352.88 238.703 357.07 239.303L376.87 242.113L372.87 239.753L381.21 250.873L379.76 243.013C377.23 265.163 374.23 287.323 372.39 309.533L371.61 318.903C370.99 326.423 380.68 329.353 381.9 320.903L381.97 320.853Z" style="fill:#4690CE"/>
<path id="Vector_3" d="M853.76 187.863C858.41 184.983 862.87 181.863 867.39 178.743C871.08 176.243 868.45 166.743 863.81 169.993C859.17 173.243 854.75 176.273 850.4 179.643C847.14 182.153 849.15 190.703 853.76 187.863Z" style="fill:#4690CE"/>
<path id="Vector_4" d="M861.85 205.403C864.94 203.833 868.07 202.323 871.16 200.753C874.25 199.183 877.8 197.753 880.55 195.583C883.3 193.413 882.44 185.823 878.06 187.133C874.93 188.063 871.92 190.133 869.06 191.733C866.2 193.333 863.13 195.063 860.15 196.733C856.7 198.633 857.78 207.503 861.83 205.443L861.85 205.403Z" style="fill:#4690CE"/>
<path id="Vector_5" d="M861.02 226.183C864.29 227.273 867.73 227.943 871.09 228.733C874.45 229.523 878.01 230.833 881.42 230.933C886.01 231.073 885.94 222.403 882.36 220.933C879.26 219.673 875.5 219.423 872.22 218.793C868.94 218.163 865.35 217.313 861.89 216.973C857.8 216.573 857.61 225.033 861.02 226.163V226.183Z" style="fill:#4690CE"/>
<path id="Vector_6" d="M219.29 137.403C222.31 140.976 225.367 144.513 228.46 148.013C231.46 151.463 234.46 155.603 238.01 158.503C242.39 162.033 244.12 153.393 242.26 150.643C239.65 146.793 235.91 143.463 232.75 140.063C229.59 136.663 226.47 133.353 223.26 130.063C219.89 126.593 217.06 134.773 219.26 137.413L219.29 137.403Z" style="fill:#4690CE"/>
<path id="Vector_7" d="M200.17 157.113C207.17 160.923 214.58 165.433 222.17 167.983C226.6 169.473 227.94 160.983 224.81 158.983C217.81 154.583 209.55 151.443 201.91 148.283C197.52 146.453 196.82 155.223 200.21 157.063L200.17 157.113Z" style="fill:#4690CE"/>
<path id="Vector_8" d="M198.27 191.163C206.4 191.383 214.53 191.093 222.65 190.873C227.42 190.743 227.39 180.603 222.65 180.753C214.52 181.013 206.38 181.203 198.27 181.893C193.95 182.253 193.87 191.053 198.27 191.163V191.163Z" style="fill:#4690CE"/>
</g>
<path id="ray-right" d="M829.311 112.26C835.671 92.8396 841.581 73.2596 847.551 53.7496L836.941 51.7496L845.861 101.49C846.861 106.87 851.701 109.49 855.601 105.16C860.841 99.3496 866.101 93.6296 870.951 87.5096L861.771 85.8096L866.901 96.8096C868.061 99.2896 870.511 101.81 873.521 100.66C877.231 99.1796 880.931 97.6596 884.651 96.2496C887.571 95.1096 890.831 94.2496 893.451 92.4596C899.991 88.0296 906.141 82.8796 912.451 78.0996L924.801 68.6996C925.581 68.1096 931.381 64.6996 931.421 63.6996C931.421 64.0396 929.211 64.6996 931.011 64.0796C932.431 63.5696 933.811 62.8696 935.201 62.2796L948.571 56.5196L972.491 46.2596L965.001 35.5696C961.307 50.3896 957.611 65.2162 953.911 80.0496L955.491 76.1696C947.111 89.4196 939.011 102.87 930.431 115.99C922.431 128.28 912.881 139.76 904.201 151.61L891.551 168.86C888.931 172.43 889.091 184.24 895.801 183.52C913.941 181.59 932.111 179.87 950.261 178.03L946.021 163.4C933.021 182.86 920.021 202.28 907.081 221.77L901.521 230.16C898.861 234.16 898.921 242.16 904.131 244.29C908.881 246.22 913.621 248.2 918.361 250.17L916.941 234.69L861.571 276.26C858.921 278.26 856.381 280.39 853.731 282.38C847.791 286.88 852.141 302.85 859.731 297.09C859.981 296.9 860.601 296.46 859.501 297.17C858.241 297.97 860.831 296.29 861.451 295.86C863.024 294.76 864.574 293.63 866.101 292.47C871.161 288.65 876.204 284.813 881.231 280.96L915.041 255.26L922.921 249.26C927.321 245.91 926.921 235.99 921.511 233.78C916.761 231.84 912.011 229.91 907.271 227.93L909.881 242.06C922.941 222.673 935.941 203.256 948.881 183.81C950.754 181.03 952.617 178.246 954.471 175.46C956.901 171.84 957.061 160.15 950.231 160.83C932.081 162.64 913.931 164.57 895.771 166.28L900.021 180.95C912.861 163.81 926.271 146.95 938.461 129.36C944.331 120.89 949.531 111.87 955.011 103.15C957.921 98.5196 960.911 93.9196 963.731 89.2396C965.731 85.9796 966.331 82.2396 967.231 78.6096C970.391 65.7762 973.551 52.9496 976.711 40.1296C977.711 36.1296 975.051 26.9096 969.221 29.4296C955.221 35.4996 940.651 40.8596 927.031 47.7396C921.291 50.6396 916.141 55.7396 911.031 59.6596C903.591 65.3396 896.131 71.0096 888.721 76.7596C888.337 77.0197 887.969 77.3036 887.621 77.6096C886.711 78.5396 888.271 77.0096 888.481 77.1196C887.891 76.7996 883.551 79.1196 882.961 79.3996C878.761 81.1196 874.557 82.8262 870.351 84.5196L876.971 88.3696L871.811 77.3696C869.811 73.2296 865.741 71.7096 862.621 75.6796C857.781 81.8296 852.531 87.5596 847.301 93.3796L857.041 97.0496L848.041 47.3296C847.041 41.7396 839.531 38.4296 837.431 45.3296C834.404 55.2696 831.384 65.2129 828.371 75.1596C826.191 82.3596 824.051 89.5796 821.951 96.8196C821.781 97.4196 821.601 98.0196 821.431 98.6196C821.181 99.4596 821.211 99.3796 821.511 98.3696L820.951 100.27C820.641 101.33 820.361 102.39 820.061 103.44L819.271 106.22C818.421 109.22 819.601 113.78 822.421 115.38C825.241 116.98 828.261 115.1 829.211 112.21L829.311 112.26Z" style="fill:#72BC4E"/>
<path id="ray-left" d="M198.23 102.71C197 95.41 195.23 88.4 194.52 81.02C194.27 78.43 191.86 74.72 188.86 74.87C185.27 75.06 181.67 75.22 178.08 75.43C175.93 75.55 173.78 75.7 171.63 75.84C170.887 75.7789 170.138 75.8295 169.41 75.99C168.84 76.45 170.41 76.29 170.41 76.28C163.51 74.28 156.41 72.89 149.41 71.28C141.47 69.41 133.29 66.67 125.21 65.57C124 65.4 123.38 64.69 125.35 66.08C124.57 65.53 123.73 65.08 122.93 64.55L111.45 57.31L98.6 49.19C97.78 48.67 96.97 48.09 96.11 47.62C93.81 46.35 91.37 46.2 88.77 45.92C86.38 45.66 84.49 48.2 83.7 50.08C82.1546 53.2664 81.4065 56.7805 81.52 60.32C81.78 64.79 81.98 69.26 82.21 73.73L82.88 86.91C82.95 88.2 82.65 91.56 83.38 87.56C84.11 83.56 83.18 86.87 82.66 88.07L81.52 90.71L84.95 86.94C82.11 88.07 79.03 88.94 76.31 90.37C73.22 91.94 70.58 94.77 67.93 96.95C63.93 100.27 63.93 109.76 69.3 111.88C81.92 116.82 94.3 122.29 107.37 125.79L103.95 122.03L106.66 129.45C107.2 130.93 107.72 132.45 108.29 133.91C109.23 136.35 108.14 133.77 108.29 133.56C107.8 134.56 108.87 137.89 109.02 138.95L110.36 148.79L112.88 167.37C113.58 172.49 116.95 176.17 119.88 180.25C121.07 181.9 123.38 183.4 125.47 182.36C137.76 176.3 149.47 169.03 161.36 162.2C164.89 160.2 166.15 155.99 165.36 152.07C164.84 149.41 161.82 144.27 158.27 146.32C146.45 153.16 134.76 160.52 122.45 166.52L128.04 168.63C126.29 166.18 124.55 163.72 122.79 161.28L124.28 164.91C122.64 153.01 121.82 140.7 119.34 128.91C118.58 125.32 116.87 121.79 115.61 118.37C114.35 114.95 113.5 111.09 109.66 109.73C106.99 108.73 104.1 108.43 101.42 107.51C98.74 106.59 96.2 105.45 93.6 104.43C86.5267 101.65 79.46 98.8634 72.4 96.07L73.76 110.99C76.1009 109.291 78.3445 107.461 80.48 105.51C81.14 104.82 78.89 106.14 79.74 105.96C80.4754 105.731 81.1938 105.45 81.89 105.12L86.26 103.41C91.91 101.19 94.64 93.76 94.5 87.96C94.34 81.39 93.87 74.82 93.55 68.26C93.41 65.37 93.26 62.48 93.14 59.59C93.17 59.0127 93.15 58.4339 93.08 57.86C93.86 61.13 91.56 63.19 92.92 60.63C93.28 59.94 93.57 59.2 93.92 58.48L88.85 62.64C90.3 62.85 91.75 63.01 93.2 63.2L90.2 62.05L108.38 73.64C112.71 76.4 117.38 80.44 122.38 81.9C137.02 86.18 152.24 89.45 167.14 92.72C170.3 93.41 173.66 92.79 176.86 92.56C180.86 92.27 184.86 91.91 188.91 91.56L183.21 85.52C184.246 93.3845 185.953 101.146 188.31 108.72C189.17 111.61 192.4 113.41 195.09 111.89C198.09 110.16 198.75 105.89 198.23 102.75V102.71Z" style="fill:#72BC4E"/>
<g id="question-left">
<path id="Vector_9" d="M476.81 20.08C477.37 11.34 493.62 14.75 488.6 22.97C485.27 28.41 481.27 31.51 481.35 38.39C481.43 45.27 489.35 42.31 487 36.2C487.18 36.7 488.14 34.59 488.6 33.95C489.24 33.06 489.96 32.23 490.6 31.37C492.209 29.4726 493.515 27.3373 494.47 25.04C495.302 22.6606 495.498 20.1052 495.038 17.6268C494.579 15.1484 493.48 12.833 491.85 10.91C483.98 1.64001 472.06 9.91001 471.52 20.08C471.27 24.75 476.52 24.67 476.77 20.08H476.81Z" style="fill:#333333"/>
<path id="Vector_10" d="M483.52 60.08C484.04 60.2696 484.61 60.2696 485.13 60.08C485.423 59.9728 485.694 59.8136 485.93 59.61C486.684 58.9223 487.181 57.9982 487.34 56.99C487.72 55.05 487.21 52.49 485.23 51.6L485.88 51.99C485.641 51.8118 485.383 51.6609 485.11 51.54C484.644 51.3586 484.126 51.3586 483.66 51.54C483.17 51.7468 482.752 52.0949 482.46 52.54V52.54C482.105 53.0523 481.866 53.6358 481.76 54.25C481.66 54.7585 481.66 55.2815 481.76 55.79C481.771 56.2864 481.88 56.7758 482.08 57.23C482.296 57.7676 482.639 58.2447 483.08 58.62C483.18 58.7169 483.299 58.7919 483.43 58.84C483.732 59.0758 484.107 59.1963 484.49 59.18C484.756 59.1411 485.02 59.0877 485.28 59.02L484.55 59.16H484.61L483.89 59.02L483.25 58.63L483.34 58.71L482.79 58.1L482.84 58.17L482.41 57.39C482.431 57.4247 482.448 57.4616 482.46 57.5L482.19 56.58C482.19 56.58 482.19 56.67 482.19 56.71L482.09 55.71V55.85L482.19 54.85V55.02L482.46 54.1L482.41 54.22L482.83 53.44L482.75 53.56L483.29 52.96C483.271 52.9821 483.247 52.9993 483.22 53.01L483.87 52.63H483.76L484.45 52.52H484.33L485.04 52.66H484.98C484.643 52.4982 484.256 52.4731 483.9 52.59C483.524 52.6184 483.17 52.7776 482.9 53.04C482.577 53.3119 482.321 53.6539 482.15 54.04C481.901 54.4388 481.738 54.8849 481.67 55.35C481.46 56.3546 481.554 57.3991 481.94 58.35C482.076 58.7381 482.288 59.0948 482.565 59.3989C482.841 59.703 483.176 59.9483 483.55 60.12L483.52 60.08Z" style="fill:#333333"/>
</g>
<g id="question-center">
<path id="Vector_11" d="M545.55 13.21C546.11 4.46002 562.36 7.88002 557.34 16.09C554.01 21.53 550.01 24.63 550.09 31.51C550.17 38.39 558.09 35.44 555.73 29.33C555.92 29.82 556.88 27.72 557.34 27.08C557.98 26.19 558.7 25.35 559.34 24.49C560.949 22.5964 562.255 20.4643 563.21 18.17C564.042 15.7906 564.238 13.2352 563.778 10.7568C563.319 8.2784 562.22 5.96304 560.59 4.04001C552.72 -5.22999 540.8 3.04002 540.26 13.21C540.01 17.88 545.26 17.79 545.51 13.21H545.55Z" style="fill:#333333"/>
<path id="Vector_12" d="M552.26 53.2C552.779 53.3948 553.351 53.3948 553.87 53.2C554.16 53.0923 554.431 52.9368 554.67 52.74C555.424 52.0482 555.921 51.121 556.08 50.11C556.46 48.17 555.95 45.61 553.97 44.72L554.61 45.11C554.378 44.9291 554.122 44.781 553.85 44.67C553.385 44.4805 552.865 44.4805 552.4 44.67C551.908 44.8782 551.487 45.2258 551.19 45.67V45.67C550.842 46.185 550.607 46.7677 550.5 47.38C550.399 47.8917 550.399 48.4183 550.5 48.93C550.511 49.4264 550.62 49.9157 550.82 50.37C551.038 50.9061 551.381 51.3825 551.82 51.76C551.922 51.8539 552.041 51.9284 552.17 51.98C552.475 52.2091 552.849 52.3257 553.23 52.31C553.493 52.2793 553.754 52.2292 554.01 52.16L553.29 52.3H553.35L552.63 52.17L551.99 51.78C552.021 51.7978 552.048 51.8216 552.07 51.85L551.53 51.25C551.532 51.2733 551.532 51.2967 551.53 51.32L551.11 50.54C551.133 50.5737 551.15 50.6108 551.16 50.65L550.88 49.73V49.85L550.78 48.85V48.98L550.88 47.98C550.885 48.0332 550.885 48.0867 550.88 48.14L551.16 47.22L551.11 47.34L551.53 46.56C551.512 46.6077 551.481 46.6493 551.44 46.68L551.99 46.08L551.92 46.14L552.57 45.75H552.46L553.18 45.62H553.06L553.77 45.76H553.71C553.371 45.6031 552.986 45.5781 552.63 45.69C552.252 45.7176 551.897 45.881 551.63 46.15C551.303 46.4176 551.045 46.7608 550.88 47.15C550.631 47.5451 550.468 47.9879 550.4 48.45C550.191 49.4547 550.285 50.4987 550.67 51.45C550.804 51.8378 551.016 52.1942 551.293 52.4969C551.569 52.7996 551.906 53.0423 552.28 53.21L552.26 53.2Z" style="fill:#333333"/>
</g>
<g id="question-right">
<path id="Vector_13" d="M620.69 24.61C621.25 15.86 637.5 19.28 632.48 27.49C629.15 32.93 625.15 36.03 625.23 42.91C625.31 49.79 633.23 46.84 630.87 40.73C631.06 41.22 632.02 39.12 632.48 38.48C633.12 37.59 633.84 36.75 634.48 35.89C636.091 33.9976 637.397 31.8653 638.35 29.57C639.182 27.1906 639.378 24.6351 638.918 22.1567C638.459 19.6784 637.36 17.363 635.73 15.44C627.86 6.16998 615.94 14.44 615.39 24.61C615.15 29.28 620.39 29.19 620.65 24.61H620.69Z" style="fill:#333333"/>
<path id="Vector_14" d="M627.39 64.6C627.911 64.8002 628.489 64.8002 629.01 64.6C629.3 64.4923 629.571 64.3368 629.81 64.14C630.56 63.4493 631.057 62.5267 631.22 61.52C631.6 59.52 631.09 57.02 629.11 56.12L629.75 56.51C629.516 56.3328 629.26 56.185 628.99 56.07C628.525 55.8805 628.005 55.8805 627.54 56.07C627.048 56.2782 626.627 56.6258 626.33 57.07V57.07C625.984 57.5823 625.749 58.1614 625.64 58.77C625.539 59.2817 625.539 59.8083 625.64 60.32C625.651 60.8164 625.76 61.3058 625.96 61.76C626.178 62.2961 626.521 62.7725 626.96 63.15C627.06 63.2469 627.179 63.3218 627.31 63.37C627.596 63.5904 627.949 63.7068 628.31 63.7C628.577 63.6703 628.841 63.6202 629.1 63.55L628.38 63.69H628.44L627.72 63.56L627.08 63.17C627.111 63.1878 627.138 63.2116 627.16 63.24L626.62 62.64C626.622 62.6633 626.622 62.6867 626.62 62.71L626.2 61.93C626.219 61.9658 626.235 62.0025 626.25 62.04L625.97 61.12C625.976 61.1632 625.976 61.2068 625.97 61.25L625.88 60.25V60.38L625.97 59.38C625.98 59.4329 625.98 59.4871 625.97 59.54L626.25 58.62L626.2 58.74L626.62 57.96C626.596 58.0071 626.566 58.0508 626.53 58.09L627.08 57.48L627.01 57.54L627.65 57.15H627.55L628.27 57.02H628.15L628.86 57.16H628.79C628.455 57.0028 628.073 56.9778 627.72 57.09C627.343 57.1227 626.99 57.2853 626.72 57.55C626.393 57.8177 626.135 58.1608 625.97 58.55C625.72 58.948 625.556 59.3944 625.49 59.86C625.28 60.8646 625.374 61.9091 625.76 62.86C625.893 63.2469 626.103 63.6027 626.378 63.9053C626.653 64.208 626.987 64.4512 627.36 64.62L627.39 64.6Z" style="fill:#333333"/>
</g>
<g id="text">
<path id="mountain" d="M3.8147e-06 762.32C4.65 747.6 19.18 728.32 26 701.68C30.92 682.5 30.37 659.22 37.12 636.55C43.12 616.45 59.69 598.68 67.54 577.49C75.04 557.24 87.54 539.37 97.14 519.49C106.74 499.61 107.5 475.49 119.48 457.4C131.78 438.86 151.92 427.79 167.14 412.58C182.79 396.95 194.87 378.58 214.02 368.04C230.789 358.6 245.16 345.426 256.02 329.54C266.93 313.74 269.59 287.63 286.02 278.47C302.16 269.47 325.6 274.8 344.02 275.93C353.512 276.5 362.789 278.989 371.291 283.249C379.792 287.508 387.341 293.448 393.48 300.71C398.66 286.66 407.97 269.21 422.77 271.53C440.16 274.26 447.07 293.82 464.56 291.77C476.05 290.43 485.56 289.77 496.32 285.42C507.93 280.72 520.93 277.61 529.18 287.04C537.43 296.47 542.45 307.2 554.18 311.61C565.91 316.02 570.1 283.38 585.92 281.37C610.32 262.94 615.48 320.9 637 322.82C661.4 334.13 687.37 341.82 711.77 353.13C729.25 361.24 747.77 367.6 765.18 376.13C782.59 384.66 801.85 390.62 818.59 400.19C835.33 409.76 842.04 435.28 857.67 446.57C873.3 457.86 900.29 455.95 914.16 469.57C929.16 484.27 935.71 506.18 946.27 522.36C957.49 539.53 965.36 558.04 972.58 576.43C979.94 595.21 978.94 615.85 983.2 635.43C987.46 655.01 995.2 673.66 997.46 693.57C999.72 713.48 1000.09 733.66 1001.36 753.5"
 style="fill:#90A67C"/>
<path id="Vector_15" d="M325.64 521.68C323.96 541.93 322.81 562.23 325.99 582.4C326.63 586.4 330.99 587.55 332.76 583.66C339.364 569.385 347.154 555.691 356.05 542.72H350.95C355.343 549.867 359.75 557.01 364.17 564.15C366.64 568.15 371.45 580.05 377.82 575.15C380.2 573.33 380.82 570.08 381.46 567.36C382.46 563.19 383.46 559.01 384.46 554.83C386.5 546.197 388.537 537.563 390.57 528.93C391.94 523.11 384.91 519.15 383.29 526.06C381.783 532.467 380.28 538.877 378.78 545.29C377.32 551.5 374.91 558.17 374.28 564.52L373.89 566.19C375.08 565.44 375.07 564.62 373.89 563.71C373.52 562.5 372.34 561.23 371.67 560.17L366.79 552.36C363.243 546.7 359.677 541.033 356.09 535.36C355.821 534.926 355.446 534.568 354.999 534.319C354.553 534.071 354.051 533.94 353.54 533.94C353.029 533.94 352.527 534.071 352.081 534.319C351.635 534.568 351.259 534.926 350.99 535.36C341.474 548.859 333.242 563.218 326.4 578.25L333.17 579.51C329.98 560.34 331.17 540.88 332.65 521.6C332.81 519.6 331.47 516.6 329.17 516.6C326.63 516.6 325.85 519.6 325.68 521.6L325.64 521.68Z" style="fill:#FFF9F0"/>
<path id="Vector_16" d="M407.61 526.69C406.65 533.763 405.683 540.833 404.71 547.9C403.8 554.5 403.56 561.69 401.86 568.12L403.6 564.88L403.14 565.37L406.02 564.84L405.68 564.71L408.26 568.39L408.16 568.01L406.5 573.86L406.74 573.7C409.41 571.95 409.11 563.61 404.93 564.17H404.67C402.05 564.53 401.22 567.01 401.04 569.35C400.95 570.323 401.093 571.303 401.458 572.21C401.823 573.116 402.4 573.922 403.14 574.56C403.668 575.004 404.335 575.247 405.025 575.247C405.715 575.247 406.382 575.004 406.91 574.56C409.45 572.91 409.47 569.56 409.81 566.85C410.34 562.59 410.81 558.32 411.37 554.06C412.377 545.813 413.393 537.57 414.42 529.33C414.68 527.22 414.35 523.96 411.95 523.12C409.71 522.34 407.88 524.63 407.61 526.65V526.69Z" style="fill:#FFF9F0"/>
<path id="Vector_17" d="M411.18 556.4L420.93 555.31C424.05 554.95 427.57 554.11 430.67 554.61C436.5 555.54 435.67 540.89 429.62 543.48C426.74 544.72 423.25 544.76 420.18 545.2L411.18 546.51C406.6 547.17 406.6 556.92 411.18 556.4V556.4Z" style="fill:#FFF9F0"/>
<path id="Vector_18" d="M433.01 526.16C431.76 533.16 430.48 540.08 429.27 547.06C428.68 550.41 428.09 553.75 427.52 557.11C426.95 560.47 426.89 564.96 425.44 568.04C424.19 570.69 424.74 576.11 428.06 577.23C431.38 578.35 433.85 574.15 433.6 571.23C433.33 567.93 434.49 564.23 435.03 560.99C435.64 557.35 436.22 553.7 436.81 550.06C437.96 543.06 439.04 536.06 440.15 529C440.49 526.81 440.03 523.36 437.56 522.5C435.09 521.64 433.39 524.1 433.01 526.19V526.16Z" style="fill:#FFF9F0"/>
<path id="Vector_19" d="M454.86 534.97C451.51 545.3 448.86 561.48 457.59 570.03C461.27 573.63 466.59 574.77 471.06 571.89C474.8 569.48 477.06 565.38 478.97 561.5C482.97 553.44 486.22 544.28 486.51 535.2C486.76 527.2 482.88 516.4 473.29 516.3C463.7 516.2 455.91 527.7 454.53 536.11C453.86 540.11 457.98 544.93 460.62 539.77C462.87 535.37 467.98 526.22 474.15 527.47C481.08 528.86 478.41 538.69 477.15 543.1C475.58 548.65 473.15 556.2 469.15 560.54C464.83 565.13 460.53 560.34 459.78 555.74C458.87 550.1 459.68 544.15 460.97 538.64C461.88 534.67 456.63 529.52 454.86 534.97Z" style="fill:#FFF9F0"/>
<path id="Vector_20" d="M499.32 535.82C495.97 546.14 493.32 562.33 502.05 570.87C505.73 574.48 511.05 575.61 515.52 572.74C519.26 570.32 521.52 566.22 523.43 562.34C527.43 554.29 530.68 545.12 530.96 536.05C531.21 528.05 527.34 517.25 517.75 517.14C508.16 517.03 500.37 528.52 498.99 536.95C498.32 541.01 502.44 545.78 505.08 540.62C507.33 536.21 512.44 527.07 518.61 528.31C525.54 529.71 522.87 539.53 521.61 543.94C520.04 549.49 517.66 557.04 513.61 561.38C509.29 565.97 504.99 561.19 504.24 556.58C503.33 550.94 504.14 544.99 505.43 539.48C506.34 535.52 501.09 530.38 499.32 535.82Z" style="fill:#FFF9F0"/>
<path id="Vector_21" d="M546.71 522.96C545.49 542.25 543.03 561.36 541.17 580.58C540.95 582.87 541.17 586.37 543.84 587.29C546.51 588.21 548.09 585.62 548.54 583.48C548.8 582.22 549.07 580.96 549.34 579.69C550.58 573.94 543.98 570.12 542.17 576.87C541.84 578.11 541.51 579.34 541.17 580.58L548.54 583.48C551.93 563.59 553.16 543.09 554.11 522.96C554.21 520.85 552.9 517.68 550.41 517.68C547.75 517.68 546.84 520.88 546.71 522.96V522.96Z" style="fill:#FFF9F0"/>
<path id="Vector_22" d="M554.27 528.24C560.58 523.5 569.81 529.33 569.1 536.94C568.33 545.19 559.26 548.94 551.99 547.2C546.37 545.84 544.99 556.73 549.88 558.12C564.36 562.27 577.28 550.3 576.95 535.78C576.65 522.56 563.13 509.43 550.64 519.37C547.16 522.14 549.64 531.72 554.27 528.24V528.24Z" style="fill:#FFF9F0"/>
<path id="Vector_23" d="M608.05 520.52C602.45 519.36 594.91 518.79 590.77 523.64C586.4 528.76 587.9 536.39 592.05 541.13C594.74 544.2 604.78 547.68 603.05 552.59C601.24 557.77 592.32 556.59 591.27 551.51C589.78 544.36 582.52 548.45 583.77 554.51C585.07 560.82 589.77 566.22 596.46 566.88C603.15 567.54 608.46 562.52 610.19 556.33C611.189 553.135 611.196 549.713 610.211 546.514C609.225 543.314 607.293 540.489 604.67 538.41C603.79 537.72 594.67 532.67 595.67 531.09C595.59 531.23 599.6 530.49 599.97 530.44C602.35 530.197 604.754 530.312 607.1 530.78C611.4 531.53 612.1 521.39 608.1 520.56L608.05 520.52Z" style="fill:#FFF9F0"/>
<path id="Vector_24" d="M639.76 520.96C637.76 535.21 635.99 549.49 634.27 563.77C633.98 566.14 634.34 569.77 637.03 570.77C639.56 571.65 641.59 569.08 641.91 566.77C643.91 552.48 645.17 538.09 646.91 523.77C647.18 521.56 646.85 518.15 644.33 517.27C641.97 516.45 640.08 518.85 639.78 520.96H639.76Z" style="fill:#FFF9F0"/>
<path id="Vector_25" d="M636.07 579.04C633.58 580.91 632.95 584.69 633.57 587.56C633.865 589.049 634.556 590.43 635.57 591.56C636.47 592.568 637.708 593.211 639.05 593.37C639.484 593.362 639.911 593.256 640.299 593.061C640.687 592.865 641.026 592.585 641.29 592.24C641.945 591.447 642.398 590.507 642.61 589.5C643.201 587.358 643.279 585.108 642.84 582.93C642.48 581.03 640.67 578.26 638.37 579.3C635.91 580.41 635.58 583.3 635.83 585.69C635.83 585.46 635.83 584.55 635.76 585.26C635.76 585.46 635.7 586.43 635.76 585.52C635.82 584.61 635.76 585.43 635.76 585.61C635.76 585.79 635.47 586.74 635.86 585.44L639.05 582.83H638.87L639.87 583.02C639.29 582.86 639.71 582.77 640.09 583.26C640.012 583.17 639.921 583.093 639.82 583.03C640.213 583.306 640.493 583.714 640.61 584.18C640.55 583.97 640.32 583.34 640.61 584.28C640.74 584.77 640.78 584.88 640.73 584.64C640.66 584.2 640.73 584.52 640.82 585.58C640.82 584.81 640.66 586.66 640.59 586.89C640.42 587.4 640.4 587.5 640.52 587.18L640.11 587.94C639.93 588.18 639.26 588.71 639.87 588.26C640.78 587.426 641.383 586.309 641.58 585.09C641.851 583.722 641.719 582.305 641.2 581.01C640.2 578.93 638.2 577.54 636.13 579.11L636.07 579.04Z" style="fill:#FFF9F0"/>
</g>
<g id="eye-left">
<path id="eye-left_2" d="M528.02 189.07C527.97 186.91 527.96 184.75 527.81 182.6C527.64 180.08 526.19 174.05 522.34 174.78L516.34 175.93C514.94 176.2 513.47 176.31 512.34 177.25C511.466 178.088 510.751 179.077 510.23 180.17C509.08 182.17 507.8 184.06 506.78 186.1C505.59 188.44 505.37 191.22 505.02 193.81C504.62 196.69 505.09 202.76 508.89 203.56L516.89 205.23C519.02 205.68 520.95 205.23 522.19 203.23C524.06 200.23 526.46 196.98 527.67 193.65C528.67 190.87 528.67 187.37 526.88 184.87C525.48 182.92 522.71 181.94 520.74 183.74C518.21 186.03 516.37 189.4 514.49 192.23L519.79 190.23L511.84 188.23L515.71 197.97C515.99 196.3 516.21 194.61 516.46 192.97L514.98 196.52L518.98 189.63L516.55 191.63L523.81 190.16L516.89 182.63C517.11 185.45 517.47 188.26 517.81 191.08C518.15 193.9 520.52 197.08 523.53 196.41C526.54 195.74 528.12 192 528.04 189.1L528.02 189.07Z" style="fill:white"/>
<path id="Vector_26" d="M518.84 189.22C521.23 189.22 521.24 184.12 518.84 184.12C516.44 184.12 516.44 189.22 518.84 189.22Z" style="fill:#040000"/>
</g>
<g id="eye-right">
<path id="Vector_27" d="M596.37 178.21C591.277 177.437 586.146 176.943 581 176.73C579.11 176.587 577.21 176.784 575.39 177.31C571.84 178.31 570.46 180.53 569.27 183.91C568.01 187.53 568.27 191.82 571.27 194.58L584.08 206.72C586.27 208.79 588.98 207.42 590.57 205.52C594.38 200.99 598.12 196.4 601.96 191.9C606.34 186.77 600.55 174.39 594.6 181.37C590.77 185.85 586.85 190.24 582.99 194.69L589.45 193.52L576.75 181.13L578.75 191.8L579.6 189.46L576.33 193.05C577.236 192.837 578.125 192.556 578.99 192.21C579.9 191.75 577.57 191.94 578.81 192.3C580.52 192.8 583 192.44 584.81 192.43C588.7 192.43 592.57 192.31 596.45 192.02C603.08 191.52 602.79 179.16 596.45 178.23L596.37 178.21Z" style="fill:white"/>
<path id="Vector_28"
 d="M585.69 192.86C590.31 192.86 590.33 183.02 585.69 183.02C581.05 183.02 581.05 192.86 585.69 192.86Z" style="fill:#040000"/>
</g>
<path id="Mouth" d="M480.74 237.93C486.74 245.597 492.827 253.207 499 260.76C500 261.96 501.89 262.43 502.8 260.76C505.367 256.093 507.93 251.403 510.49 246.69L507.89 247.69C511.35 249.76 514.8 251.86 518.25 253.95C520.84 255.51 523.59 258.18 526.65 257.21C531.24 255.76 535.87 254.09 540.35 252.31C543.69 250.98 544.71 247.7 546.43 244.65L543.88 245.65C545.88 246.53 547.94 247.43 549.96 248.32L554.34 250.25C554.75 250.43 556.9 251.46 556.49 251.16C557.1 251.6 559.78 254.79 560.98 256.07C562.57 257.76 564.18 259.44 565.78 261.14C566.132 261.463 566.592 261.641 567.07 261.641C567.548 261.641 568.008 261.463 568.36 261.14L582.75 245.67L580.75 246.04C584.36 246.94 587.17 248.21 590.7 246.9C594.7 245.41 598.7 243.9 602.7 242.37C605.7 241.24 604.8 234.1 601.36 235.37C597.65 236.75 593.93 238.1 590.22 239.5C589.414 239.697 588.634 239.993 587.9 240.38C586.95 241.1 588.55 240.66 588.11 240.51C586.18 239.83 584.06 239.51 582.11 238.99C581.774 238.867 581.411 238.837 581.059 238.902C580.708 238.967 580.38 239.125 580.11 239.36L565.71 254.8H568.29C565.19 251.48 562.16 246.92 558.43 244.35C554.7 241.78 549.43 240.35 545.2 238.42C544.727 238.261 544.212 238.274 543.748 238.457C543.283 238.64 542.898 238.981 542.66 239.42C541.75 240.98 540.72 242.51 539.93 244.13C539 246.04 539.37 244.67 540.1 244.61C539.497 244.748 538.911 244.949 538.35 245.21C534.06 246.71 529.5 247.93 525.35 249.8C524.56 250.15 523.93 249.9 524.87 250.2C526.41 250.7 524.75 249.75 524.62 249.65C523.012 248.494 521.313 247.471 519.54 246.59C516.32 244.65 513.08 242.72 509.87 240.76C509.625 240.568 509.341 240.431 509.039 240.357C508.736 240.283 508.421 240.274 508.115 240.33C507.809 240.387 507.518 240.508 507.262 240.686C507.006 240.863 506.791 241.093 506.63 241.36C504.05 246.027 501.48 250.693 498.92 255.36H502.72C496.6 247.853 490.407 240.4 484.14 233C481.33 229.68 478.71 235.48 480.66 238L480.74 237.93Z" style="fill:#333333"/>
</g>
<defs>
<clipPath id="clip0">
<rect width="1052.91" height="762.32" style="fill:white"/>
</clipPath>
</defs>
</svg>
